<?xml version="1.0" encoding="utf-8"?>
<!-- Generator: Adobe Illustrator 26.0.2, SVG Export Plug-In . SVG Version: 6.00 Build 0)  -->
<svg version="1.1" id="Layer_1" xmlns="http://www.w3.org/2000/svg" x="0px" y="0px"
	 viewBox="0 0 127.6 87.4" style="enable-background:new 0 0 127.6 87.4;" xml:space="preserve">
<style type="text/css">
	.st0{fill:#E4002B;}
</style>
<g>
	<path class="st0" d="M99.8,55.3v-2.9c-3,2.5-6.4,3.6-10,3.6c-4.6,0-9-1.8-12.1-4.6c-3.6,3.2-8,4.6-13.1,4.6c-5.5,0-10.2-2-13.7-5.3
		c-3.5,3.4-8.6,5.3-13.7,5.3c-10.8,0-18.8-7.4-18.8-18.7c0-10,6.8-18.8,17.5-18.8c5.7,0,10.5,2.8,13.5,7.1c3.5-4.3,8.9-7.1,15.2-7.1
		c4,0,7.5,1.1,10.5,3.2c-1.2,1.2-3.3,3.7-4.8,7.5c-2.2-1.4-3.8-1.8-5.7-1.8c-5.5,0-9.7,4.4-9.7,9.9c0,5.6,4.1,9.8,9.9,9.8
		c3.3,0,6.1-1.7,7.8-3.7c-0.6-1.9-1-4-1-6.1c0-10.6,7.9-18.8,17.7-18.8c4.1,0,7.7,1.3,10.5,3.6v-2.9h9.3v36H99.8z M27.7,39.8
		c0.5,5,4.6,8.5,9.7,8.5c4.1,0,7.3-2.3,9.1-4.2l0,0c-0.5-1.4-0.9-2.9-1.1-4.4H27.7z M43,32.7c-0.3-3.2-3.2-6.3-7.1-6.3
		c-4,0-7.3,3-7.7,6.3H43z M99.4,32c-2-2.7-5.2-4.5-8.9-4.5c-5.6,0-9.3,4.7-9.3,9.9c0,5.6,4.1,9.8,9.5,9.8c3.6,0,6.8-1.8,8.7-4.5V32z
		 M103.3,59.9v8.6h5.1v-1.3h-3.7v-7.3H103.3z M99.2,59.8l3.1,8.6h-1.5l-0.7-2h-3.3l-0.7,2h-1.4l3.1-8.6H99.2z M97.2,65.2h2.4
		l-1.2-3.4L97.2,65.2z M92.3,59.9v5.7l-3.8-5.7h-1.3v8.6h1.4v-5.9l3.9,5.9h1.2v-8.6H92.3z M78.5,64.2c0,2.5,1.6,4.3,3.8,4.3
		c2.2,0,3.8-1.8,3.8-4.4v-0.1c0-2.5-1.6-4.3-3.8-4.3c-2.2,0-3.8,1.8-3.8,4.4V64.2z M84.6,64.2c0,1.8-1,3.1-2.3,3.1
		c-1.3,0-2.3-1.2-2.3-3.1v-0.1c0-1.8,1-3.1,2.3-3.1C83.6,61,84.6,62.3,84.6,64.2L84.6,64.2z M75.8,68.4h1.4v-8.6h-1.4V68.4z
		 M68.6,59.9v1.3h2.2v7.2h1.4v-7.2h2.3v-1.3H68.6z M65.7,59.8l3.1,8.6h-1.5l-0.7-2h-3.3l-0.7,2h-1.4l3.1-8.6H65.7z M63.8,65.2h2.4
		L65,61.7L63.8,65.2z M58.8,59.9v5.7l-3.8-5.7h-1.3v8.6h1.4v-5.9l3.9,5.9h1.2v-8.6H58.8z M46.3,68.4h1.4v-3h1.4c0,0,0.1,0,0.1,0
		l1.8,3h1.6l-2-3.3c1-0.4,1.8-1.2,1.8-2.5v0c0-0.8-0.3-1.4-0.7-1.9c-0.5-0.5-1.3-0.8-2.3-0.8h-3.1V68.4z M47.7,64.1v-3h1.6
		c1.1,0,1.7,0.5,1.7,1.5v0c0,0.9-0.6,1.5-1.7,1.5H47.7z M39.6,59.9v8.6H45v-1.3h-4v-2.4h3.5v-1.3H41v-2.3h4v-1.3H39.6z M32.4,59.9
		v1.3h2.3v7.2h1.4v-7.2h2.3v-1.3H32.4z M29.7,59.9v5.7L26,59.9h-1.3v8.6H26v-5.9l3.9,5.9h1.2v-8.6H29.7z M21.7,59.9h1.4v8.6h-1.4
		V59.9z"/>
</g>
</svg>
